<svg xmlns="http://www.w3.org/2000/svg" width="16" height="12" viewBox="0 0 16 12" fill="none">
  <path fill-rule="evenodd" clip-rule="evenodd" d="M8.00005 0.5C11.1829 0.5 14.0185 1.98703 15.8499 4.30426L14.3706 5.6603C12.9094 3.73978 10.5995 2.5 8.00005 2.5C5.4006 2.5 3.09073 3.73978 1.62947 5.6603L0.150146 4.30426C1.98158 1.98703 4.81715 0.5 8.00005 0.5ZM12.8879 7.01944C11.8 5.49438 10.0162 4.5 8.00005 4.5C5.98394 4.5 4.20009 5.49438 3.11217 7.01944L4.60342 8.38642C5.30973 7.25373 6.56687 6.5 8.00005 6.5C9.43323 6.5 10.6904 7.25373 11.3967 8.38642L12.8879 7.01944ZM9.8691 9.7867C9.58181 9.03436 8.85333 8.5 8.00005 8.5C7.14676 8.5 6.41828 9.03436 6.13099 9.7867L8.00005 11.5L9.8691 9.7867Z" fill="white" fill-opacity="0.9"/>
</svg>