        <svg
          xmlns="http://www.w3.org/2000/svg"
          width="225"
          height="32"
          viewBox="0 0 225 32"
          fill="none"
        >
          <path
            fill-rule="evenodd"
            clip-rule="evenodd"
            d="M20 8C20 5.19974 20 3.79961 19.455 2.73005C18.9757 1.78924 18.2108 1.02433 17.27 0.544967C16.2004 0 14.8003 0 12 0H0H225H213C210.2 0 208.8 0 207.73 0.544967C206.789 1.02433 206.024 1.78924 205.545 2.73005C205 3.79961 205 5.19974 205 8V16C205 21.6005 205 24.4008 203.91 26.5399C202.951 28.4215 201.422 29.9513 199.54 30.9101C197.401 32 194.601 32 189 32H36C30.3995 32 27.5992 32 25.4601 30.9101C23.5785 29.9513 22.0487 28.4215 21.0899 26.5399C20 24.4008 20 21.6005 20 16V8Z"
            fill="black"
          />
        </svg>